<svg xmlns="http://www.w3.org/2000/svg" xmlns:svg="http://www.w3.org/2000/svg" id="svg56" width="171" height="172" version="1.1" viewBox="0 0 171 172"><metadata id="metadata62"/><g id="g54" style="fill:none;fill-rule:evenodd"><g id="g12" style="fill-rule:nonzero"><path id="path2" d="m 91,1 h 80 V 81 H 91 Z" style="fill:#fff"/><path id="path4" d="m 103,13 h 24 v 24 h -24 z" style="fill:#333"/><path id="path6" d="m 135,13 h 24 v 24 h -24 z" style="fill:#d3d3d3"/><path id="path8" d="m 135,45 h 24 v 24 h -24 z" style="fill:#23cba5"/><path id="path10" d="m 103,45 h 24 v 24 h -24 z" style="fill:#005dbb"/></g><path id="path14" d="M 0,0 H 80 V 80 H 0 Z" style="fill:#fff;fill-rule:nonzero"/><g style="font-weight:400;font-size:44px;font-family:National2-Medium,'National 2';fill:#2a2a2a" id="text18" aria-label="Aā"><path id="path869" d="m 28.199062,27.199219 -5.886718,15.96289 h 11.794921 z m -2.449218,-4.275391 h 4.919921 L 42.894375,55 H 38.382656 L 35.460781,46.771484 H 21.001797 L 18.079922,55 H 13.50375 Z"/><path id="path871" d="m 49.40414,22.214844 h 12.847657 v 3.179687 H 49.40414 Z m 8.916016,20.689453 q -4.791016,0 -6.638672,1.095703 -1.847656,1.095703 -1.847656,3.738281 0,2.105469 1.375,3.351563 1.396484,1.224609 3.78125,1.224609 3.287109,0 5.263672,-2.320312 1.998047,-2.341797 1.998047,-6.208985 v -0.880859 z m 7.884766,-1.632813 V 55 h -3.953125 v -3.652344 q -1.353516,2.191406 -3.373047,3.244141 -2.019531,1.03125 -4.941406,1.03125 -3.695313,0 -5.886719,-2.0625 -2.169922,-2.083985 -2.169922,-5.564453 0,-4.060547 2.707031,-6.123047 2.728516,-2.0625 8.121094,-2.0625 h 5.542969 v -0.386719 q 0,-2.728516 -1.804688,-4.210937 -1.783203,-1.503907 -5.027344,-1.503907 -2.0625,0 -4.017578,0.494141 -1.955078,0.494141 -3.759765,1.482422 v -3.652344 q 2.169922,-0.837891 4.210937,-1.246094 2.041016,-0.429687 3.97461,-0.429687 5.220703,0 7.798828,2.707031 2.578125,2.707031 2.578125,8.207031 z"/></g><g id="g34" style="fill-rule:nonzero"><path id="path20" d="m 0,91 h 80 v 80 H 0 Z" style="fill:#fff"/><g id="g24" style="fill:#23cba5"><path id="path22" d="m 40.79,107 h 7.737 v 47 H 40.79 Z m -10.316,0 h 7.737 v 47 h -7.737 z m -10.316,0 h 7.737 v 47 h -7.737 z m 30.947,0 h 7.737 v 47 h -7.737 z"/></g><path id="path26" d="m 15,107 h 5.158 v 47 H 15 Z" style="fill:#078766"/><g id="g30" style="fill:#24a882"><path id="path28" d="m 27.895,107 h 2.579 v 47 h -2.58 z m 10.315,0 h 2.58 v 47 h -2.58 z m 10.317,0 h 2.579 v 47 h -2.58 z"/></g><path id="path32" d="M 58.842,107 H 64 v 47 h -5.158 z" style="fill:#078766"/></g><g id="g52"><path id="path36" d="m 91,92 h 80 v 80 H 91 Z" style="fill:#fff;fill-rule:nonzero"/><g id="g44" transform="translate(105,107)"><path id="path38" d="M 0,0 H 38 V 37 H 0 Z" style="fill:#d3d3d3;fill-rule:nonzero"/><path id="path40" d="m 11.366,18.625 10.67,10.595 c 0.414,0.406 1.166,0.39 1.56,-0.034 L 30.434,21.926 38,29.44 v 8.186 H 0 V 28.935 L 11.366,18.626 Z" style="fill:#595959"/><path style="fill:#23cba5;fill-rule:nonzero" id="circle42" d="m 27,13 a 5,5 0 0 1 -5,5 5,5 0 0 1 -5,-5 5,5 0 0 1 5,-5 5,5 0 0 1 5,5 z"/></g><g id="g50" transform="translate(125,129)" style="fill-rule:nonzero"><path style="fill:#333" id="circle46" d="M 30,15 A 15,15 0 0 1 15,30 15,15 0 0 1 0,15 15,15 0 0 1 15,0 15,15 0 0 1 30,15 Z"/><path id="path48" d="M 24,15 12,21 V 9 Z" style="fill:#fff"/></g></g></g></svg>